<?xml version="1.0" encoding="UTF-8" standalone="no"?>
<!-- Created with Inkscape (http://www.inkscape.org/) -->

<svg
   width="136.91013mm"
   height="18.861099mm"
   viewBox="0 0 136.91013 18.861099"
   version="1.1"
   id="svg5"
   xmlns:inkscape="http://www.inkscape.org/namespaces/inkscape"
   xmlns:sodipodi="http://sodipodi.sourceforge.net/DTD/sodipodi-0.dtd"
   xmlns="http://www.w3.org/2000/svg"
   xmlns:svg="http://www.w3.org/2000/svg">
  <sodipodi:namedview
     id="namedview7"
     pagecolor="#ffffff"
     bordercolor="#000000"
     borderopacity="0.25"
     inkscape:showpageshadow="2"
     inkscape:pageopacity="0.0"
     inkscape:pagecheckerboard="0"
     inkscape:deskcolor="#d1d1d1"
     inkscape:document-units="mm"
     showgrid="false" />
  <defs
     id="defs2" />
  <g
     inkscape:label="Layer 1"
     inkscape:groupmode="layer"
     id="layer1"
     transform="translate(-31.899483,-138.32454)">
    <path
       style="fill:#fbb130;fill-opacity:1;stroke-width:0.264583"
       id="path1511"
       d="m 165.73281,146.66708 c -4.82937,-1.73799 -9.90393,-2.7086 -14.93213,-3.67902 -5.02788,-0.93476 -10.14782,-1.10804 -15.24098,-1.38136 -9.70822,-0.521 -0.52092,-0.0456 -10.2903,-0.54432 -9.78136,-0.58264 -19.57936,-0.62089 -29.373908,-0.68719 -8.502144,-0.14525 -17.022754,0.10206 -25.451345,1.27157 -2.809062,0.49375 -5.649134,1.10087 -8.316764,2.14107 -0.643705,0.251 -2.22165,1.01999 -2.878013,1.33438 -2.432756,1.15877 -4.879268,2.29829 -7.120781,3.80146 -0.09389,0.0637 -1.422284,0.98439 -1.639126,1.06399 -0.137903,0.0506 -0.567155,-0.0939 -0.440261,-0.0199 5.683533,3.31502 2.641576,2.66664 3.391834,1.3109 0.121391,-0.21936 0.281487,-0.41495 0.422232,-0.62242 1.813066,-1.95077 4.357579,-2.88563 6.775194,-3.85017 3.677152,-1.37824 7.585585,-1.98236 11.410121,-2.81156 4.159145,-0.88336 8.27436,-1.94467 12.487236,-2.54449 4.793027,-0.55324 9.630237,-0.52407 14.448088,-0.55943 4.857723,0.008 9.714723,0.0417 14.572363,0.001 5.69235,-0.002 11.38817,-0.14089 17.06686,0.30727 3.89416,0.40383 7.74785,1.06127 11.55714,1.95479 2.9639,0.70089 5.96339,1.23358 8.95319,1.80832 2.78445,0.7197 5.6397,1.07874 8.49154,1.40626 0.38763,0.0344 0.77458,0.0778 1.16291,0.10325 1.23289,0.0809 2.4697,0.0855 3.70374,0.13877 0.18433,0.008 0.70273,0.14312 0.55233,0.0363 -1.22107,-0.86758 -2.54915,-1.57374 -3.82372,-2.36061 -3.5432,-0.31531 -7.04325,-0.96134 -10.54805,-1.55141 -3.50088,-0.52102 -6.9266,-1.419 -10.41299,-2.0142 -3.85894,-0.69604 -7.73937,-1.22619 -11.64534,-1.56617 -4.81993,-0.30137 -9.64943,-0.38274 -14.47738,-0.4269 -5.14165,5.2e-4 -10.2833,0.0139 -15.424952,0.0119 -2.917248,0.0312 -5.837574,-0.0753 -8.754573,-0.006 -2.017834,0.0482 -3.199204,0.14928 -5.225333,0.28435 -3.772022,0.34007 -7.55137,0.65825 -11.282259,1.32478 -1.878804,0.46871 -3.806865,0.7562 -5.659229,1.3296 -1.107556,0.34285 -1.421246,0.50127 -2.520291,0.95129 -2.807142,1.12585 -5.50464,2.50791 -8.124846,4.01357 -2.571258,1.55547 -0.491527,0.28741 -2.966762,1.82304 -0.393073,0.24386 -0.807495,0.45558 -1.181928,0.72719 -0.191455,0.13887 -0.681054,0.3381 -0.50613,0.49729 3.173659,2.88828 2.603278,2.59659 5.298742,1.90467 3.335861,-0.64867 6.633435,-1.48445 9.965266,-2.15066 2.424624,-0.48482 2.860212,-0.51854 5.298599,-0.88064 6.367883,-0.74535 12.78972,-0.81208 19.193269,-0.86241 7.359012,-0.0521 14.717787,-0.0915 22.076957,-0.0585 5.86177,0.0694 11.72384,0.0417 17.58584,0.0603 4.53315,0.0161 9.06634,0.0145 13.59952,0.0201 2.83992,0.006 5.67973,0.0345 8.51966,0.0343 2.09216,-0.002 4.18431,0.005 6.27647,0.006 1.35407,0.0849 2.74592,-0.1427 4.08085,0.12709 1.34431,0.43763 2.67985,0.903 4.01526,1.36743 -1.17187,-0.8384 -2.29186,-1.75453 -3.5156,-2.51521 -0.24373,-0.15151 -0.5584,-0.13309 -0.83931,-0.19181 -0.44155,-0.0923 -0.88586,-0.17096 -1.32783,-0.26123 -1.77954,-0.36345 -3.55723,-0.73752 -5.33364,-1.11599 -2.86707,-0.50384 -5.69778,-1.18465 -8.56066,-1.70953 -4.09784,-0.72446 -8.22207,-1.275 -12.34526,-1.83303 -6.22673,-1.0554 -12.51576,-1.59156 -18.81337,-1.99155 -3.29414,-0.26118 -6.5856,-0.5652 -9.87034,-0.92676 -0.70501,-0.0776 -1.40841,-0.16923 -2.11293,-0.25111 -0.24175,-0.0281 -0.9223,-0.2225 -0.72587,-0.0788 1.29191,0.94503 2.71997,1.68823 4.07995,2.53234 4.72994,0.78557 9.44692,1.64499 14.17351,2.44956 2.36125,0.41269 4.71608,0.86515 7.0618,1.3584 1.80884,0.39304 3.6682,0.36546 5.50889,0.37656 3.62239,-0.11863 7.22217,0.34347 10.81214,0.75802 1.33083,0.26518 2.67568,0.49807 3.97957,0.88157 0.20485,0.0602 0.78272,0.32292 0.60894,0.19884 -1.20698,-0.86173 -2.48609,-1.61768 -3.72914,-2.42653 -6.36689,-1.03071 -12.8038,-1.50343 -19.23436,-1.92117 -7.03979,-0.38175 -14.0929,-0.38786 -21.14085,-0.43131 -6.38454,-0.0147 -12.769117,-0.004 -19.153674,-0.01 -4.164189,-0.0206 -8.328641,-0.008 -12.492714,-0.0482 1.517718,0.75086 2.922002,1.79805 4.553153,2.25259 1.056384,0.29438 2.192735,-0.0486 3.289208,-0.0672 1.90574,-0.0323 3.811471,-0.0676 5.717399,-0.0856 6.778549,-0.0637 13.558288,-0.0407 20.336998,-0.0287 7.51561,0.0489 15.03167,0.0659 22.54682,0.16925 0.26017,0.0125 0.99071,0.19129 0.78051,0.0375 -1.212,-0.88692 -2.47309,-1.75891 -3.8737,-2.30102 -0.60735,-0.23508 -1.30205,0.0355 -1.95322,0.0457 -0.93198,0.0146 -1.86405,0.0231 -2.79612,0.0286 -4.41057,0.0261 -1.58636,-0.0603 -6.06776,0.15031 -0.93758,0.0601 -1.87945,0.0725 -2.81274,0.18042 -0.62167,0.0719 -1.32709,0.004 -1.84301,0.35779 -0.23252,0.15963 -0.14966,0.70494 0.0977,0.84045 1.88885,1.03486 3.90421,1.85803 5.96574,2.48156 0.3551,0.10741 7.32807,0.86257 7.65824,0.89915 -5.69579,-1.69704 4.37173,0.92173 3.49987,0.14506 -1.1842,-1.05489 -2.52898,-1.93583 -3.9234,-2.69129 -0.54378,-0.2946 -1.20724,-0.26952 -1.80855,-0.41411 -7.11929,-1.71185 2.6034,0.56894 -4.96538,-1.19589 -4.2801,-0.94446 -8.62756,-1.49988 -12.99379,-1.8332 -3.19587,-0.18245 -6.39945,-0.11511 -9.598736,-0.10372 -4.459145,0.0494 -8.920522,-0.0588 -13.376389,0.1315 -3.444928,0.269 -6.918552,0.46456 -10.309439,1.17453 -0.681492,0.14269 -1.355198,0.32034 -2.032796,0.48051 -1.931834,0.48207 -3.849616,1.00744 -5.725946,1.67631 -0.505568,0.18023 -1.052171,0.28415 -1.505148,0.57206 -0.190794,0.12126 -0.517639,0.46961 -0.328454,0.59337 1.545444,1.01099 3.314618,1.62952 4.971928,2.44428 7.616161,0.29026 15.212499,-0.53249 22.797611,-1.09742 4.966637,-0.39469 9.943649,-0.60817 14.924439,-0.69058 2.36698,-0.0334 4.73419,-0.0157 7.10126,-0.007 1.92442,0.003 3.84883,0.002 5.77324,0.0115 0.8393,0.0103 1.67878,0.004 2.51809,0.0118 0.11558,0.001 0.43806,0.0782 0.34669,0.007 -1.17161,-0.90795 -2.42505,-1.7051 -3.63757,-2.55766 -5.98477,-1.05814 -12.06169,-1.53001 -18.12009,-1.94575 -4.915346,-0.32419 -9.842075,-0.37011 -14.765921,-0.42236 -2.919468,-0.0249 -5.839076,-0.0157 -8.758608,-0.0126 -2.880783,-0.007 -5.759701,-0.0156 -8.631486,0.23418 -0.763016,0.10499 -1.535176,0.12721 -2.298938,0.22478 -0.267774,0.0342 -0.559874,0.0107 -0.798055,0.13772 -0.124423,0.0664 -0.301783,0.3143 -0.17885,0.3834 4.509138,2.53439 3.571126,2.17658 7.333938,2.34885 6.349756,0.31926 12.708897,0.24688 19.061133,0.45184 1.558348,0.0744 3.985107,0.17335 5.605812,0.30765 0.455917,0.0378 1.74118,0.41735 1.363112,0.15976 -1.312524,-0.89427 -2.747513,-1.64976 -4.26022,-2.13366 -0.617667,-0.19759 -1.293016,0.10159 -1.939679,0.15036 -0.777838,0.0587 -1.555877,0.11461 -2.333818,0.17192 -2.875513,0.24337 -5.755323,0.4319 -8.636926,0.58564 -1.886654,0.10066 -3.754956,0.13595 -5.613694,0.49172 -0.03008,0.16702 -0.23609,0.41428 -0.09025,0.50107 1.408131,0.83803 2.904385,1.54351 4.448297,2.09257 0.523394,0.18613 1.109575,0.0566 1.664531,0.0813 1.462556,0.0652 2.924961,0.11219 4.386339,0.2007 -1.233752,-0.758 -2.354363,-1.74242 -3.701259,-2.274 -0.59318,-0.23411 -1.274638,0.0461 -1.912223,0.0585 -0.873651,0.017 -1.747467,0.032 -2.62128,0.0299 -2.129972,-0.005 -4.260403,-0.0252 -6.376328,-0.27445 -1.79922,-1.07085 2.141958,1.4731 3.308574,2.03457 0.245274,0.11804 0.541134,-0.0598 0.812099,-0.0857 0.266235,-0.0255 1.001811,0.10631 0.799423,-0.0685 -2.988339,-2.58166 -2.435884,-2.36848 -4.788469,-2.36476 -2.215832,0.0106 -4.430712,-0.0577 -6.646151,-0.0796 -0.103946,-0.002 -0.397086,-0.0667 -0.311835,-0.007 1.179155,0.82328 2.351799,1.67398 3.633452,2.32634 0.26871,0.13677 0.602903,-0.0131 0.904401,-0.0166 1.080328,-0.0125 2.160532,-0.009 3.240823,0.003 1.658292,0.0313 3.316769,-0.0149 4.97559,-0.004 0.175083,0.006 0.667128,0.12176 0.525246,0.019 -1.177439,-0.85294 -2.389236,-1.6788 -3.696103,-2.31596 -0.304469,-0.14844 -0.677301,0.0148 -1.016008,0.0186 -0.847865,0.01 -1.512151,0.062 -2.340559,-0.15044 -0.264901,-0.0679 -0.502555,-0.21583 -0.753833,-0.32375 0.988547,0.53949 1.977091,1.07899 2.965636,1.61848 -0.02775,-0.0178 -0.0555,-0.0355 -0.08325,-0.0533 -0.03952,0.15642 0.03132,0.52891 -0.11857,0.46925 -1.119794,-0.44571 -2.09627,-1.19011 -3.15222,-1.77111 -0.126502,-0.0696 0.235493,0.1686 0.362969,0.23641 1.359138,0.72303 2.730161,1.4235 4.095242,2.13526 1.207733,0.32694 2.907276,-0.0704 4.053496,0.37511 0.08245,0.032 0.130731,0.11919 0.196096,0.17878 -1.148035,-0.76949 -2.235822,-1.63754 -3.444108,-2.30847 -0.227417,-0.12628 -0.519676,-0.0245 -0.77951,-0.0368 -0.350475,-0.0166 -0.701061,-0.031 -1.05142,-0.0499 -1.05094,-0.0567 -2.088438,-0.13268 -3.14126,-0.13605 -1.423268,0.0103 -2.750473,0.56929 -4.085344,0.99485 -1.135549,0.36202 -0.701339,0.38644 -1.451025,0.22455 1.137264,0.63519 2.218148,1.38399 3.411791,1.90557 0.0173,0.008 0.600874,-0.52139 0.844577,-0.56402 0.09379,-0.0164 0.315867,0.21022 0.229587,0.16995 -3.880522,-1.81103 -2.633845,-2.68107 -4.170151,-1.16571 -1.088329,0.96685 -2.011238,1.4887 -3.367775,0.77962 1.076502,0.5803 2.112944,1.24201 3.229506,1.7409 0.08302,0.0371 0.04185,-0.18099 0.09209,-0.25678 0.11485,-0.17329 0.502282,-0.54608 0.688951,-0.61997 0.699227,-0.27676 2.194666,-0.19762 2.676112,-0.20986 8.186354,-0.0264 16.370829,0.20699 24.554037,0.40635 5.014825,0.15821 10.064456,-0.0418 14.996356,-1.00161 0.4247,-0.1518 0.86671,-0.26187 1.27409,-0.45539 2.80451,-1.33219 -2.94595,-3.21131 -3.35976,-3.40546 -0.32628,-0.15308 -3.27637,-0.32252 -3.32124,-0.32572 -0.70852,-0.0352 -1.41683,-0.0748 -2.12555,-0.10552 -1.654223,-0.0718 -2.312239,-0.0822 -3.935947,-0.12816 -0.477139,-0.0135 -0.954871,-0.0137 -1.431383,-0.0416 -0.101208,-0.006 -0.383553,-0.11442 -0.298241,-0.0596 1.254673,0.80559 2.548536,1.54844 3.822803,2.32266 2.168728,-0.062 3.342608,0.60844 -2.387854,-2.30519 -0.253269,-0.12877 -0.568097,0.0164 -0.852223,0.0163 -0.105015,-2e-5 -0.405913,-0.0685 -0.31461,-0.0166 1.422505,0.80835 2.890281,1.53429 4.335422,2.30144 2.627793,-0.13876 5.258613,0.0636 7.885523,0.0179 8.78178,-0.31266 17.55823,0.29735 26.31995,0.81437 0.71307,0.0442 7.12053,0.43328 8.27494,0.53324 0.61233,0.053 2.27713,0.64921 1.82974,0.22778 -1.0707,-1.00859 -2.45433,-1.70433 -3.85937,-2.13965 -0.83987,-0.26022 -1.75592,0.0984 -2.63469,0.12759 -1.15741,0.0384 -2.31554,0.0502 -3.47332,0.0753 -8.33581,0.0634 0.48272,0.0181 -5.59924,7e-5 -0.29823,-8e-4 -1.11167,-0.1879 -0.89454,0.0165 2.83835,2.67242 3.3167,2.45427 6.30774,3.0272 0.52983,0.0928 1.05999,0.18373 1.58948,0.27847 0.45014,0.0805 1.70179,0.53875 1.34938,0.24733 -0.90501,-0.74836 -2.07685,-1.0982 -3.09211,-1.68841 -0.13668,-0.0795 -0.2007,-0.27819 -0.35441,-0.31519 -0.27303,-0.0657 -1.0668,-0.14127 -0.84207,0.0272 1.20698,0.90452 2.60812,1.51575 3.91218,2.27362 1.07368,-0.0529 2.15001,-0.033 3.22386,-0.075 0.30823,-0.0121 1.14412,0.15568 0.92345,-0.0599 -2.86002,-2.79333 -3.00918,-2.52776 -5.9962,-3.23733 -3.23905,-0.83346 -6.54691,-1.39909 -9.75258,-2.36473 -0.61018,-0.1838 -2.31611,-1.0174 -1.80036,-0.64311 2.25743,1.63824 2.11283,1.50396 3.83997,1.46431 3.66964,-0.57132 7.37644,-0.52893 11.04213,2.5e-4 0.30115,0.0794 1.16328,0.40977 0.90346,0.23806 -0.96858,-0.64008 -2.0333,-1.12148 -3.0601,-1.66328 -0.0962,-0.0508 -0.1974,-0.11206 -0.30619,-0.11297 -0.56588,-0.005 -1.12914,0.0872 -1.69497,0.0961 -2.42625,0.0382 -3.75874,-0.0674 -6.24776,-0.1839 -6.5771,-0.48541 -13.14528,-1.05351 -19.74029,-1.21069 -3.76546,0.15675 -7.881703,-0.16044 -11.507016,1.03703 -0.375822,0.27612 -1.561121,0.3612 -1.870995,0.68987 -0.09982,0.10587 -0.221856,0.33883 -0.103865,0.42398 2.949022,2.1281 2.442787,1.97618 4.266208,2.30744 -1.101596,-0.61446 -2.200074,-1.23454 -3.304784,-1.84338 -0.03205,-0.0177 0.0533,0.0514 0.08535,0.069 1.197864,0.65966 2.39391,1.32293 3.60286,1.96203 0.0409,0.0216 0.176202,0.0415 0.137936,0.0155 -3.557307,-2.41795 -2.150317,-2.35893 -3.972378,-2.33529 -0.721003,0.0939 -1.446448,0.14957 -2.171758,0.19699 -0.305898,0.02 -1.138727,-0.15928 -0.918099,0.0536 2.768814,2.67099 2.413609,2.39328 4.891299,2.33876 -1.225912,-1.26692 4.485662,1.10444 3.665182,0.19685 -2.593736,-2.86913 -4.496045,-1.8611 -7.691346,-1.82194 -1.382318,0.0169 -2.764491,-0.0443 -4.146738,-0.0664 -2.245371,-0.12167 -5.681959,-0.27003 -7.976695,-0.52985 -0.636291,-0.072 -2.315205,-0.81444 -1.891806,-0.33404 0.761053,0.86353 2.007169,1.12975 3.040312,1.63718 0.224837,0.11043 0.471029,0.20327 0.721421,0.21041 0.559506,0.016 1.115451,-0.0947 1.673174,-0.14212 0.629849,-0.62759 1.603571,0.18413 2.308749,-0.12695 0.129662,-0.0572 0.324525,-0.29637 0.204978,-0.37248 -1.238845,-0.78871 -2.588191,-1.39383 -3.92712,-1.9972 -0.122457,-0.0552 -0.505111,-0.0367 -0.400185,0.0472 1.097822,0.87737 2.309876,1.60138 3.464814,2.40207 0.32213,0.01 1.594381,0.0443 1.822667,0.0673 0.106399,0.0108 0.204888,0.0614 0.307332,0.0921 -1.325819,-0.76488 -2.570777,-1.69124 -3.97746,-2.29463 -0.391213,-0.16781 -0.850824,0.0311 -1.276393,0.041 -0.448722,0.0105 -0.897588,0.0135 -1.34638,0.0202 -0.177522,-0.005 -0.677235,-0.11768 -0.532566,-0.0147 1.20215,0.85592 2.439797,1.68223 3.77055,2.32008 0.372658,0.17862 0.825807,0.0407 1.237168,0.0802 0.833271,0.0801 1.650466,0.24199 2.468981,0.40968 7.145128,0.0979 14.289443,0.24489 21.433473,0.4492 9.21736,0.10882 18.42165,0.48765 27.60459,1.29301 2.54333,0.24997 5.09623,0.46504 7.61319,0.92423 0.44997,0.0821 1.68362,0.59395 1.34097,0.29097 -2.43552,-2.15357 -2.55598,-1.96071 -4.83537,-2.25341 -2.69949,-0.31999 -5.43787,-0.45672 -8.11824,-0.931 -0.4402,-0.0779 -1.64447,-0.62813 -1.29473,-0.34969 2.92233,2.32663 2.44805,2.10918 4.77975,2.15101 0.53522,0.0202 1.07141,0.0224 1.60565,0.0605 0.32434,0.0231 0.64867,0.0601 0.96769,0.12301 0.12648,0.0249 0.46953,0.20833 0.36095,0.13884 -1.17794,-0.75388 -2.33973,-1.54026 -3.57506,-2.19588 -0.0778,-0.0413 -0.21202,0.17415 -0.13966,0.22439 1.16857,0.81136 2.43302,1.47506 3.64953,2.21259 1.98052,-0.0356 3.40158,0.74322 -2.60673,-2.28527 -0.29076,-0.14656 -0.651,-0.0183 -0.97627,-0.0332 -1.16513,-0.0532 -0.8112,-0.0207 -1.71773,-0.1513 -0.0818,-0.0306 -0.31866,-0.1395 -0.24549,-0.0918 1.12527,0.73374 2.24107,1.48532 3.4067,2.15307 0.0725,0.0415 0.16006,-0.0507 0.24281,-0.0624 0.22276,-0.0315 0.44748,-0.0475 0.67161,-0.0671 0.91368,-0.0797 0.97682,-0.0751 1.90887,-0.12509 0.7579,-0.11175 1.52919,-0.20643 2.26181,-0.44295 0.20788,-0.0671 0.63732,-0.34416 0.45793,-0.46879 -1.16774,-0.81121 -2.45992,-1.42671 -3.68988,-2.14007 -0.11541,-0.0136 -0.44165,-0.10705 -0.34624,-0.0407 1.19585,0.83162 2.35077,1.75994 3.67882,2.35823 0.59591,0.26846 1.30275,0.10907 1.95262,0.17875 2.46601,0.26442 4.91004,0.6148 7.35118,1.04833 1.79797,0.3651 3.62942,0.49617 5.45072,0.68306 0.56462,0.0579 1.13471,0.0806 1.69277,0.18418 0.16554,0.0307 0.60011,0.30374 0.45715,0.2148 -1.22281,-0.76083 -2.46622,-1.48804 -3.69933,-2.23206 -0.40083,0.0257 -0.8013,0.0575 -1.20248,0.077 -1.03902,0.0504 -2.08274,0.074 -3.12285,0.0867 -0.37315,0.005 -0.74636,0.006 -1.11954,0.004 -0.14063,-8e-4 -0.53269,-0.0986 -0.42174,-0.0122 1.08576,0.84577 2.26978,1.5572 3.40467,2.3358 0.0653,-2.7e-4 0.25004,0.0358 0.19603,-0.001 -1.18701,-0.80805 -2.34854,-1.66869 -3.62235,-2.33152 -0.24591,-0.12796 -0.55432,0.0103 -0.83151,0.0139 -1.24613,0.0164 -2.49117,0.0205 -3.73725,0.002 -0.12303,-0.008 -0.47549,-0.0877 -0.36909,-0.0254 1.39069,0.81487 2.74633,1.72813 4.25289,2.30109 0.57652,0.21927 1.23365,0.007 1.85033,0.0201 1.00388,0.021 2.38632,-0.0631 3.39837,0.26254 -1.23642,-0.76391 -2.40354,-1.65347 -3.70927,-2.29173 -0.26823,-0.13111 -0.59638,0.0303 -0.89474,0.0412 -0.24805,0.009 -0.49627,0.0129 -0.74441,0.019 -1.17269,0.0285 -2.3454,0.0458 -3.51832,0.0628 -2.91347,-0.002 -5.82695,0.005 -8.74044,5.2e-4 -0.37293,-0.004 -0.74585,-0.008 -1.11878,-0.012 -0.0728,-0.0111 -0.27892,-0.0748 -0.21826,-0.0332 1.17112,0.80414 2.3253,1.64217 3.56692,2.33249 0.17809,0.099 0.40746,-0.009 0.61122,-0.01 0.12671,-10e-5 0.48376,0.0815 0.38004,0.009 -1.18633,-0.83247 -2.45072,-1.54774 -3.67608,-2.32162 -1.89241,0.0957 -3.78822,-0.045 -5.66843,-0.25332 -1.34871,-0.14945 -2.55313,-0.33364 -3.81765,-0.78825 -2.91989,-0.4524 -5.89414,-0.33185 -8.84026,-0.42588 -1.18345,-0.082 -2.36913,-0.0394 -3.55413,-0.0442 -2.38815,0.0161 -4.77651,0.055 -7.16494,0.0706 -4.91678,-0.0177 -9.833455,-0.008 -14.750107,0.0311 -7.118868,0.0381 -14.237848,0.0258 -21.356656,-0.0167 -3.057128,0.1021 -6.139468,-0.24778 -9.188217,0.0431 -2.597271,0.38031 -5.208693,0.64221 -7.812619,0.9718 -0.335566,0.06 -0.693658,0.0451 -1.006697,0.18011 -0.120658,0.052 -0.311335,0.27094 -0.199525,0.33996 1.395828,0.86154 2.845273,1.66471 4.381018,2.24096 0.55997,0.21012 1.195057,0.0521 1.792687,0.0756 0.982726,0.0386 2.845067,0.10332 3.853429,0.13885 2.341287,0.16491 2.027994,0.29411 -2.840217,-2.18837 -0.304758,-0.1554 -0.662618,-0.0423 -0.738818,0.28232 -0.06329,0.26963 0.13684,0.46902 -0.0068,0.31225 -0.163428,0.0317 -0.326213,0.067 -0.490284,0.0952 -0.880636,0.15155 -0.914418,0.14617 -1.850839,0.24581 -0.251156,0.0267 -0.939319,-0.0954 -0.753888,0.0761 2.776437,2.56774 2.211739,2.40958 4.274637,2.38547 -1.418471,-0.73017 2.195595,0.37856 1.724681,0.0484 -1.218451,-0.85426 -2.463538,-1.70096 -3.824533,-2.30268 -0.403331,-0.17832 -0.881753,0.0208 -1.322702,0.027 -1.525225,0.0215 -2.173158,0.0175 -3.717751,0.02 -0.918795,-0.007 -1.601681,0.003 -2.47496,-0.0415 -0.06971,-0.004 -0.147439,-0.0589 -0.207994,-0.0242 -0.07915,0.0454 -0.06615,0.19231 -0.14959,0.22923 -0.166759,0.0738 -0.362588,0.0423 -0.541674,0.0767 -0.395547,0.0759 -0.787524,0.16943 -1.181285,0.25414 -0.631952,0.30253 -2.405973,0.0701 -2.910525,0.70888 -0.326665,0.41353 0.216622,0.63371 -0.3385,0.63399 -2.379422,0.53493 -3.669789,-0.27906 1.572699,2.67538 0.241575,0.13615 0.554263,-0.0207 0.831535,-0.0243 0.463987,-0.006 0.928047,-0.003 1.392071,-0.005 1.693402,0.044 3.402984,0.0707 5.079053,0.34937 0.372197,0.0619 0.740793,0.14924 1.102249,0.25744 0.220895,0.0661 0.837469,0.382 0.639405,0.26394 -1.067051,-0.63601 -2.167678,-1.21392 -3.251515,-1.82088 -0.05045,-0.0358 -0.08951,-0.10607 -0.151334,-0.10728 -0.195241,-0.004 -0.673467,0.17584 -0.511709,0.28524 1.211112,0.81907 2.449928,1.61001 3.761436,2.25625 0.252978,0.12465 0.563972,0.009 0.845957,0.014 0.329343,0.006 0.658683,0.0115 0.988026,0.0172 2.181902,0.009 3.006024,0.70739 -2.567353,-2.27577 -0.115451,-0.0618 -1.160333,-0.007 -1.392639,-0.0119 -0.05626,-0.003 -0.217173,-0.0366 -0.168791,-0.008 1.121666,0.66859 2.224415,1.37913 3.405121,1.93689 0.102537,0.0484 0.181864,-0.13579 0.277003,-0.1975 0.577268,-0.3744 1.190881,-0.57345 1.837663,-0.79683 2.103729,-3.59892 -7.596383,-2.45018 -8.560498,-2.37745 -0.252145,0.0269 -0.511482,0.0153 -0.756433,0.0809 -0.07909,0.0212 -0.24728,0.12584 -0.177917,0.16933 1.253615,0.78612 2.523715,1.56602 3.881869,2.15335 0.13594,0.0588 1.662401,-0.18901 1.88649,-0.24352 -1.169419,-0.77198 -2.293226,-1.61795 -3.508256,-2.31595 -0.141981,-0.0816 -0.327287,0.0257 -0.490871,0.0186 -0.12224,-0.005 -0.465735,-0.12215 -0.362775,-0.056 0.190841,0.12254 3.085832,3.14237 4.312877,1.85159 -1.18365,-0.77921 -2.310416,-1.65261 -3.550954,-2.33764 -0.209545,-0.11571 -0.478586,-0.0122 -0.717841,-0.0196 -0.323488,-0.01 -0.646875,-0.0232 -0.970381,-0.0326 -1.177771,-0.0343 -2.277851,0.0126 -3.447259,0.16218 -0.843393,0.15359 -1.774343,0.23388 -2.525627,0.69883 -0.124402,0.077 -0.440389,0.21226 -0.322009,0.29823 3.661852,2.65899 2.828462,2.34747 5.761691,2.56214 2.479633,0.10791 4.961173,0.1954 7.437771,0.36356 0.830477,0.0564 2.001189,0.0498 2.828557,0.34669 -1.166281,-0.76692 -2.277618,-1.62475 -3.498842,-2.30076 -0.178956,-0.0991 -0.408702,0.0181 -0.613145,0.0246 -0.270823,0.009 -0.541703,0.0157 -0.812615,0.0207 -0.881954,0.0164 -1.764205,0.0169 -2.646267,0.0175 -1.439228,0.0869 -2.817622,-0.34479 -4.231582,-0.53102 0.50618,0.48129 -1.646211,-0.4826 -1.275334,-0.25776 7.164464,4.34333 0.640307,-0.21394 -1.020469,-0.5769 -5.532665,-1.88099 12.951153,7.51839 -0.0062,0.64111 -0.03865,-0.0205 0.05097,0.0778 0.04965,0.12152 -0.0038,0.12571 -0.126299,0.18793 -0.206254,0.25326 -0.322241,0.10527 -0.469672,0.50423 -0.732091,0.66727 -1.259636,0.78261 -2.90054,1.03989 -4.306546,1.4036 -3.032456,0.82292 -4.748229,0.79505 0.91958,3.09538 0.292907,0.11888 0.593905,-0.21676 0.890535,-0.32602 0.425503,-0.15673 0.850572,-0.31463 1.27586,-0.47195 3.278376,-1.26359 6.744867,-1.92705 10.043486,-3.11674 0.249142,-0.11396 1.580136,-0.68458 1.876808,-0.94394 1.194499,-1.04427 -4.073077,-2.49295 -4.204321,-2.53255 -0.619239,-0.18681 -1.284031,0.1573 -1.925265,0.24204 -0.732652,0.0968 -1.464209,0.20172 -2.196317,0.30259 -1.114493,0.18472 -2.691098,0.42695 -3.825726,0.68028 -0.34879,0.0779 -0.701511,0.15218 -1.034175,0.28277 -0.09621,0.0378 -0.316399,0.16147 -0.22625,0.21202 4.216342,2.36431 2.855934,2.34167 5.770126,1.6457 0.564041,-0.13701 1.133424,-0.25365 1.692129,-0.41103 2.859725,-0.80551 1.893605,-1.21189 -2.234205,-3.05266 -0.413739,-0.18451 -0.905603,0.0278 -1.358384,0.0423 -0.545521,0.0174 -1.091017,0.0356 -1.636525,0.0535 -2.705118,0.14744 -4.138689,-0.35091 1.468173,2.47763 0.136856,0.069 2.161855,0.0152 2.616679,0.11177 -1.218147,-0.77136 -2.322152,-1.76283 -3.654443,-2.3141 -0.489506,-0.20255 -1.054883,0.0989 -1.582428,0.14722 -0.742032,0.068 -1.484146,0.13504 -2.226305,0.2016 -0.721352,0.0647 -1.444186,0.11421 -2.164223,0.19217 -0.341569,0.037 -0.714364,-0.006 -1.019344,0.15254 -0.139361,0.0723 -0.09405,0.29956 -0.141076,0.44934 1.52836,0.69257 2.98277,1.57959 4.585081,2.07773 0.710266,0.22081 1.487347,0.0273 2.231014,0.0413 2.073654,0.039 2.765489,0.0301 4.770054,0.15118 1.453915,0.0879 1.045374,0.0113 1.95072,0.24892 -4.204629,-2.7101 -2.649754,-2.24886 -5.997453,-2.16277 -0.02387,5.3e-4 -1.520039,-0.0635 -1.76362,0.0657 1.176105,0.7638 2.3295,1.56377 3.528319,2.2914 0.07143,0.0434 0.321604,0.0464 0.250651,0.002 -1.164408,-0.72405 -2.31647,-1.48335 -3.56034,-2.06032 -0.09632,-0.0447 -1.662451,0.68435 -1.792776,0.74647 -0.677143,0.29324 -2.504546,1.57925 -3.237606,1.34524 -0.06625,-0.0211 -0.08459,-0.1104 -0.126884,-0.1656 1.115351,0.61253 2.164628,1.3649 3.346053,1.83758 0.143952,0.0576 0.114546,-0.2934 0.211897,-0.41407 0.410538,-0.50891 0.96824,-0.81903 1.553446,-1.09451 1.026025,-0.48299 2.49946,-0.94043 3.533436,-1.29041 3.867026,-1.1767 7.652546,-2.6362 11.595121,-3.54733 1.058693,-0.22705 2.131528,-0.38357 3.190782,-0.60775 0.412441,-0.0873 0.841698,-0.12986 1.230173,-0.29361 0.142192,-0.0599 0.432734,-0.27153 0.300926,-0.35177 -4.511918,-2.74674 -3.332617,-2.41841 -7.147986,-1.96301 -5.01764,0.76872 -10.125284,1.44882 -14.905908,3.22944 -0.105822,0.14674 -0.468563,0.34071 -0.317468,0.44021 1.3482,0.88783 2.769756,1.73487 4.317402,2.19387 0.674849,0.20015 1.396426,-0.18053 2.091256,-0.29318 0.860849,-0.13957 1.724163,-0.27159 2.574912,-0.46333 1.703218,-0.38387 3.74587,-1.04189 5.414915,-1.55195 2.170083,-0.67964 4.305101,-1.45767 6.447194,-2.21748 1.29489,-0.4593 2.644341,-0.80968 3.880483,-1.41484 -1.310291,-0.71416 -2.481922,-1.7855 -3.930873,-2.14248 -0.789823,-0.19459 -1.576771,0.40089 -2.367756,0.5907 -1.069234,0.25658 -2.143072,0.49367 -3.212737,0.74845 -3.282186,0.78176 -6.555566,1.57758 -9.812922,2.45665 -4.287444,1.40073 -8.819346,2.36798 -12.81807,4.53491 -0.390597,0.21166 -0.754182,0.46976 -1.131271,0.70464 -0.195869,0.19901 -0.466977,0.34519 -0.5876,0.59702 -0.08742,0.18251 -0.159362,0.4976 0.01087,0.607 1.36783,0.87899 2.833822,1.62232 4.354338,2.19818 0.449395,0.17019 0.961705,0.0212 1.44163,-0.003 1.635453,-0.083 2.617565,-0.2809 4.300913,-0.53341 4.095271,-0.61313 8.103015,-1.66905 12.152095,-2.51071 3.131225,-0.65087 3.664437,-0.69582 6.82008,-1.19357 3.523268,-0.63495 7.164239,-0.55434 10.659983,-1.36564 0.544039,-0.12626 1.06907,-0.32368 1.603605,-0.48552 0,0 -3.143033,-2.14415 -3.143033,-2.14415 v 0 c -0.513741,0.15835 -1.018566,0.3492 -1.541219,0.47505 -3.44543,0.82958 -7.038274,0.82347 -10.51583,1.45678 -3.099718,0.49759 -3.765304,0.57084 -6.847779,1.20078 -4.065643,0.83086 -8.090596,1.88594 -12.211084,2.43207 -1.57048,0.19018 -2.815738,0.39523 -4.369644,0.41047 -0.482158,0.005 -1.656628,-0.50601 -1.444702,-0.0729 0.43108,0.88099 1.521201,1.23921 2.304328,1.8297 0.09571,0.0722 -0.271442,-0.15596 -0.236728,-0.27069 0.07061,-0.23339 0.322969,-0.3654 0.484455,-0.5481 0.353761,-0.23379 0.693385,-0.49052 1.06128,-0.70137 3.90193,-2.23634 8.385617,-3.23311 12.632783,-4.57057 4.329155,-1.16912 8.681775,-2.2871 13.086815,-3.1374 0.836327,-0.16143 2.52798,0.4188 2.518357,-0.4329 -0.01286,-1.13869 -1.699294,-1.51641 -2.548943,-2.27461 -1.108543,0.69879 -2.484591,1.01848 -3.70636,1.4608 -2.115261,0.76578 -4.220223,1.56086 -6.363229,2.24846 -2.653334,0.80539 -5.250256,1.57922 -8.013472,1.91387 -0.716685,0.0868 -2.182305,-0.55554 -2.159389,0.16601 0.03222,1.01438 1.486985,1.38162 2.230474,2.07243 0.02598,-0.0908 0.05195,-0.18164 0.07792,-0.27246 4.665017,-1.92458 9.764728,-2.5392 14.726002,-3.22414 0.874953,-0.0542 2.34896,0.66943 2.624862,-0.16265 0.291219,-0.87828 -1.228624,-1.38702 -1.89983,-2.02395 -0.04309,-0.0409 0.0016,0.14879 -0.05411,0.16981 -1.394764,0.52749 -2.958304,0.51855 -4.382884,0.92419 -3.925646,0.95776 -7.677925,2.49675 -11.560069,3.61045 -1.599409,0.51432 -3.386426,0.9377 -4.78328,1.93174 -0.233172,0.16594 -0.437221,0.374 -0.618606,0.59537 -0.132834,0.16211 -0.462677,0.39533 -0.315072,0.54411 0.964042,0.97175 2.194134,1.63722 3.291203,2.45583 1.283631,-0.079 2.356522,-0.99715 3.501882,-1.48218 1.225743,-0.53955 0.144457,-0.079 1.30778,-0.53418 0.185523,-0.0726 0.687234,-0.0801 0.552802,-0.22717 -0.863262,-0.94412 -1.954305,-1.6535 -2.976158,-2.42319 -0.06562,-0.0494 -0.309697,-0.0566 -0.246433,-0.004 0.965573,0.7999 1.995027,1.51938 2.992541,2.27908 -0.164762,0.1296 -0.02585,0.0103 0.459904,-0.01 0.782735,-0.0324 1.566367,-0.0381 2.349344,-0.064 0.36468,-0.0121 1.286727,0.26607 1.093771,-0.0436 -0.623525,-1.00074 -1.739413,-1.59231 -2.609122,-2.38847 -2.1897,-0.14532 -4.386628,-0.13907 -6.578473,-0.23157 -0.773401,-0.0326 -2.239843,-0.90295 -2.318462,-0.13286 -0.09571,0.93753 1.42924,1.22874 2.143861,1.8431 -0.102156,0.05 -0.41969,0.16075 -0.30647,0.14998 0.300384,-0.0286 0.582621,-0.16527 0.881772,-0.20471 0.882803,-0.1164 3.582037,-0.30351 4.435586,-0.34919 0.563322,-0.0302 1.915033,0.45898 1.691362,-0.0589 -0.476594,-1.10351 -1.821937,-1.56846 -2.732905,-2.3527 -0.594871,0.0323 -0.404434,0.0294 -1.431049,-0.0264 -0.388096,-0.0211 -1.391809,-0.40113 -1.162751,-0.0871 2.290476,3.13989 1.676251,2.29887 3.339901,2.17858 0.478608,-0.0346 0.958758,-0.0428 1.438135,-0.0642 0.551743,-0.008 1.103487,-0.0323 1.655231,-0.0243 0.463909,0.007 1.630979,0.46505 1.390192,0.0685 -0.586264,-0.96559 -1.6828,-1.52473 -2.639274,-2.12574 -0.11819,-0.0743 -0.200383,0.20246 -0.326584,0.2621 -0.916167,0.43301 -1.747991,0.55198 -2.75174,0.78587 -2.647392,0.49654 -2.112878,-0.0571 0.76341,2.5785 0.01913,0.0175 -0.0048,-0.066 0.01942,-0.0754 0.309182,-0.12019 0.626687,-0.22079 0.948592,-0.30091 0.547034,-0.13615 1.100791,-0.24484 1.655157,-0.34713 0.699683,-0.1291 1.40407,-0.23124 2.106107,-0.34686 0.738153,-0.0913 1.474166,-0.20209 2.214465,-0.27403 0.657518,-0.0639 2.057823,0.5224 1.977358,-0.13329 -0.122693,-0.9998 -1.479307,-1.36816 -2.242315,-2.02577 -0.03895,-0.0336 0.0969,0.10959 0.05782,0.14302 -0.215273,0.18419 -0.479779,0.30273 -0.731274,0.43319 -0.343336,0.1781 -0.700764,0.32761 -1.051147,0.49142 -3.2928,1.20397 -6.746179,1.92037 -10.048388,3.10758 -0.436838,0.14345 -0.869524,0.30023 -1.310513,0.43036 -0.29328,0.0865 -1.081722,-0.0196 -0.89077,0.21921 2.740538,3.42772 1.949858,2.37927 3.920265,1.75489 0.488492,-0.15479 0.98747,-0.27431 1.481206,-0.41146 1.536851,-0.39409 3.198591,-0.67571 4.585851,-1.49188 0.260289,-0.15314 0.425876,-0.52717 0.726663,-0.64116 1.191561,-1.28747 0.01529,-3.87151 -3.094456,-3.05689 -3.164877,0.82907 1.859394,2.0926 3.006609,2.3843 1.366332,0.55924 1.196313,0.50839 -2.796583,-1.73571 -0.07093,-0.0399 0.07502,0.15465 0.144794,0.19652 2.272326,1.36349 2.877777,2.1114 4.949364,2.29676 1.413201,0.21569 2.806512,0.59201 4.251439,0.47578 1.163222,-0.006 2.32805,0.001 3.490859,-0.0351 0.222716,-0.007 0.818809,0.13172 0.667711,-0.032 -0.848395,-0.91958 -1.932011,-1.59025 -2.898018,-2.38538 -3.383296,-0.23501 -6.777972,-0.28871 -10.158519,-0.57274 -2.309513,-0.30237 -2.918423,-0.69691 0.652839,1.78166 0.08402,0.0583 0.136887,-0.157 0.22553,-0.20801 0.724975,-0.4172 1.598737,-0.49733 2.401573,-0.63891 1.15969,-0.1164 2.268977,-0.15319 3.433686,-0.0939 0.328697,0.0167 0.657952,0.0302 0.985218,0.0651 0.237699,0.0253 0.885658,0.27509 0.707795,0.11539 -0.913966,-0.82067 -1.990207,-1.44029 -2.98531,-2.16043 -0.17477,0.0524 -0.646313,0.0217 -0.524314,0.15736 0.822918,0.91529 1.814587,1.66811 2.790079,2.41869 0.230566,0.1774 0.661307,-0.19424 0.872133,0.0328 -0.990852,-0.76126 -1.981703,-1.52251 -2.972554,-2.28377 -0.346716,0.13002 -0.145913,0.0647 -0.898073,0.13463 -0.298053,0.0277 -1.082688,-0.17062 -0.895786,0.0632 1.947187,2.43601 1.791192,2.35364 3.387616,2.13473 1.31009,-0.11684 2.637565,-0.24329 3.954751,-0.19355 0.331692,0.0125 1.217147,0.347 0.990267,0.10471 -3.51073,-3.74916 -3.220218,-3.06982 -2.771992,-1.9693 -0.401416,0.14817 -1.033738,0.36904 -1.409089,0.56149 -2.012852,1.03201 -1.388068,2.72703 2.506445,3.02484 0.348504,-0.005 0.396621,-0.006 0.787911,-0.007 0.194532,-5.3e-4 0.71206,0.14603 0.583602,-6e-5 -2.199487,-2.50137 -1.764474,-2.3137 -3.750403,-2.32472 -0.332001,-0.0113 -0.664313,-0.0156 -0.996008,-0.0339 -0.288086,-0.0158 -1.062056,-0.27697 -0.862872,-0.0682 0.411295,0.43103 2.078945,2.7519 3.221908,1.9879 0.175432,-0.11727 0.308676,-0.28781 0.463013,-0.43171 -1.154166,-0.74004 -2.280968,-1.5246 -3.462499,-2.22012 -0.278469,-0.16393 -1.586939,-0.36839 -1.71146,-0.38507 -1.695109,-0.22708 -3.409225,-0.26685 -5.1156,-0.33079 -0.480642,-0.0147 -0.961892,-0.0158 -1.441928,-0.044 -0.281112,-0.0165 -1.036535,-0.2918 -0.839965,-0.0902 2.433796,2.49652 2.503704,2.59205 4.887611,1.91116 0.187179,-0.1459 0.60947,-0.26961 0.470294,-0.5932 -0.01775,-0.0413 -0.143127,-0.0286 -0.117716,-0.0656 0.379174,-0.55294 2.304934,-0.40589 2.752918,-0.65 0.418187,-0.0816 0.836372,-0.16311 1.254556,-0.24467 0.260324,-0.10552 0.50913,-0.24581 0.780966,-0.31657 0.05724,-0.0149 -0.126656,0.0853 -0.107424,0.14123 0.01627,0.0473 0.09857,-0.019 0.148532,-0.0217 0.799222,-0.0421 1.557216,-0.0317 2.368277,-0.0367 1.767846,0.004 2.027915,2.4e-4 3.772864,0.0186 0.464417,0.005 1.598628,0.43584 1.393197,0.0193 -1.306414,-2.64894 -2.260327,-2.28443 -4.219794,-2.35384 -0.287025,-0.0304 -1.059082,-0.30117 -0.861073,-0.0912 0.846444,0.89768 1.861031,1.64156 2.919992,2.27473 0.209576,0.12531 0.484023,-0.065 0.726426,-0.0945 0.870474,-0.10564 1.774706,-0.12795 2.574465,-0.53015 0.09792,-0.14188 0.259085,-0.25678 0.293759,-0.42564 0.03671,-0.17878 -0.321493,0.0873 -0.307248,0.0888 0.179568,0.0198 0.655437,0.11493 0.541388,-0.0252 -2.061424,-2.53247 -1.498766,-2.31416 -3.391334,-2.33254 -1.316804,-0.0394 -2.528845,-0.0656 -3.847809,-0.14839 -0.616492,-0.0387 -1.974349,-0.75364 -1.847098,-0.14919 0.548897,2.60732 1.947505,1.98465 3.073905,1.77963 2.601111,-0.35401 5.213334,-0.6085 7.816474,-0.94675 2.993327,-0.21472 6.005717,-0.0343 9.003684,-0.13722 7.103562,-0.0431 14.207296,-0.0542 21.310922,-0.0166 4.944582,0.0385 9.889192,0.0493 14.833902,0.0297 2.44769,0.0148 4.89579,0.0587 7.3432,0.0575 1.15689,-0.0119 2.31353,0.0178 3.47031,-0.007 2.94543,0.004 5.94632,-0.0424 8.83997,0.56597 1.22437,0.33238 2.44279,0.4709 3.70885,0.60287 1.95038,0.20329 3.90625,0.35065 5.8683,0.35666 -0.90485,-0.77377 -1.76354,-1.60505 -2.71456,-2.32133 -0.0947,-0.0713 -0.23688,0.009 -0.35537,0.009 -0.21238,3e-5 -0.78364,-0.16266 -0.63706,-0.009 2.54857,2.67201 1.87273,2.31213 4.0703,2.28971 2.9085,-0.003 5.81696,0.009 8.7254,-0.0137 1.20222,0.006 2.40654,0.0263 3.60856,-0.012 0.24262,-0.008 0.48492,-0.0237 0.7275,-0.0328 0.31454,-0.0118 1.12617,0.22695 0.94382,-0.0296 -0.68969,-0.97028 -1.77283,-1.58917 -2.65925,-2.38375 -1.09473,-0.0366 -2.18961,-0.0626 -3.28441,-0.0997 -0.64445,-0.0218 -1.97611,-0.71236 -1.93324,-0.069 0.16858,2.53011 1.2445,2.36703 2.38542,2.27939 1.25161,-0.0163 2.50223,-0.009 3.75382,0.0102 0.29121,0.004 1.05923,0.24058 0.87357,0.0162 -1.94519,-2.3512 -1.62464,-2.30383 -2.98049,-2.3357 1.0039,0.7751 1.9636,1.61111 3.01172,2.32529 0.0971,0.0662 0.23346,-0.0283 0.35081,-0.0341 0.35905,-0.0175 0.7185,-0.0257 1.07784,-0.0355 1.48732,-0.0408 2.97655,-0.0439 4.46139,-0.14939 -0.8828,-0.81291 -1.72166,-1.67627 -2.64839,-2.43871 -0.10138,-0.0834 -0.25867,-0.0462 -0.38919,-0.0604 -0.55396,-0.0601 -1.10944,-0.1052 -1.66372,-0.1622 -1.81688,-0.18683 -3.6349,-0.38211 -5.43449,-0.70055 -2.44878,-0.38001 -4.90285,-0.71442 -7.36103,-1.02858 -0.70642,-0.0903 -2.30293,-0.9483 -2.12067,-0.25985 0.52308,1.9757 1.72142,2.15355 3.00172,2.40484 -1.01775,-0.6642 -2.07612,-1.26999 -3.05325,-1.99262 -0.0592,-0.0437 0.24398,-0.12057 0.17244,-0.13783 -0.0983,-0.0237 -0.1858,0.0807 -0.28215,0.11135 -0.70378,0.22403 -1.43921,0.32929 -2.1714,0.40553 -0.88918,0.0507 -1.84602,0.0304 -2.71695,0.24524 -1.76934,0.43639 1.64868,2.52054 3.03872,2.55495 0.75815,0.0511 0.76699,0.0538 1.69481,0.10279 0.34639,0.0183 1.24306,0.33101 1.03941,0.0502 -1.81703,-2.50526 -1.91251,-2.24367 -3.75217,-2.40588 1.00126,0.70198 2.02106,1.37821 3.00376,2.10592 0.0265,0.0196 -0.0525,0.0815 -0.078,0.0607 -0.96548,-0.78689 -1.85282,-1.66813 -2.83464,-2.43453 -0.26863,-0.20968 -2.75467,-0.038 -2.90232,-0.17182 -0.47539,0.0102 -1.66167,-0.38239 -1.42615,0.0307 1.59265,2.79327 3.96592,2.62984 6.60021,2.94877 2.89894,0.35098 2.80926,0.33617 5.63066,0.65897 0.61227,-0.002 2.13475,0.53004 1.83679,-0.005 -1.1256,-2.02066 -2.64512,-2.26945 -4.4188,-2.54235 -2.47126,-0.38023 -4.96499,-0.57961 -7.45595,-0.77723 -4.33421,-0.32708 -8.6726,-0.62651 -13.01526,-0.81982 -4.12991,-0.18384 -5.37769,-0.16156 -9.50753,-0.25043 -1.65774,-0.0357 -3.31528,-0.0798 -4.97292,-0.11972 -4.99689,-0.13791 -9.991619,-0.31025 -14.987614,-0.47416 -1.908884,-0.0626 -3.682465,-0.0714 -5.571453,-0.20265 -0.421735,-0.0293 -0.840885,-0.0882 -1.261329,-0.13236 -0.808641,-0.13975 -1.613355,-0.25015 -2.43118,-0.32693 -2.263772,-0.21254 -2.193874,-0.3876 1.283592,2.19284 0.120169,0.0892 0.298013,-0.0275 0.447019,-0.0412 0.450781,-0.006 0.901552,-0.0134 1.352343,-0.0191 0.443191,-0.006 1.505564,0.3923 1.329598,-0.0145 -1.199158,-2.77223 -2.407494,-2.28653 -4.483529,-2.53976 0.971886,0.7638 1.900968,1.58546 2.915661,2.29139 0.09778,0.068 0.451398,0.0582 0.357037,-0.0145 -0.922777,-0.71082 -2.012569,-1.19441 -2.902342,-1.94613 -0.09844,-0.0832 0.371451,-0.2286 0.25735,-0.28848 -0.653066,-0.34275 -1.649781,1.31886 -2.204186,0.19314 -0.589256,0.0412 -1.192128,-0.009 -1.767766,0.12369 -0.435935,0.10036 -1.521838,0.23542 -1.217908,0.56365 1.835922,1.98275 3.23392,2.09106 5.398328,2.26486 2.705962,0.2173 5.213109,0.33122 7.935473,0.47716 2.497497,0.0744 4.951539,0.21609 7.446309,0.0684 0.55591,-0.0329 1.940737,0.25038 1.655067,-0.22764 -1.671763,-2.79741 -4.276503,-2.33649 -6.842255,-2.46644 -0.51485,-0.0333 -1.816868,-0.53799 -1.54455,-0.0998 1.585706,2.55166 2.062162,2.33659 3.822379,2.22686 0.735955,-0.0459 1.471023,-0.10277 2.207072,-0.14672 0.141497,-0.003 0.525214,0.0906 0.424493,-0.009 -0.876369,-0.8651 -1.878026,-1.59363 -2.83409,-2.36976 -0.03254,-0.0264 -0.158218,-0.0513 -0.122089,-0.03 7.4318,4.36968 1.075211,0.54574 -0.351327,-0.16301 -0.16038,-0.045 -0.616064,-0.23276 -0.48114,-0.13506 0.948479,0.68677 1.994125,1.23209 2.94332,1.91787 0.05944,0.0429 -0.276703,0.0912 -0.2131,0.0547 0.2618,-0.15024 0.863605,-0.33512 1.113845,-0.42536 0.234987,-0.0847 0.468009,-0.17483 0.702014,-0.26225 1.288868,-0.44807 2.508778,-0.64153 3.875698,-0.76447 2.44404,-0.21982 4.90071,-0.31513 7.35416,-0.30633 6.57721,0.15079 13.13172,0.70039 19.69085,1.1866 1.68968,0.0911 4.67079,0.28405 6.4295,0.26374 0.63501,-0.007 1.28877,0.0372 1.90048,-0.13347 0.29235,-0.0815 0.91753,-0.38536 0.69346,-0.59008 -1.05527,-0.96414 -2.43055,-1.51157 -3.70411,-2.16058 -0.26974,-0.13746 -0.5934,-0.12041 -0.8901,-0.18062 -3.70852,-0.44563 -7.45068,-0.39678 -11.15338,0.12213 -0.43298,0.21358 -1.59346,0.25819 -1.29893,0.64074 1.24466,1.61669 3.44881,2.41306 5.35181,2.93799 3.24375,0.89477 6.56271,1.48945 9.80068,2.40809 1.32138,0.40618 5.61348,2.04887 -0.11651,-1.29387 -0.25567,-0.14916 -0.59001,0.0512 -0.88579,0.0625 -1.08725,0.0415 -2.17755,0.0152 -3.26514,0.045 1.05892,1.00623 1.73058,2.75605 3.31242,2.25203 0.30777,-0.0981 1.06751,-0.28654 0.82808,-0.50337 -2.30284,-2.08554 -3.95606,-2.11306 -6.57607,-2.58005 -0.51494,-0.10681 -1.03238,-0.20221 -1.54481,-0.32044 -0.42221,-0.0974 -1.5239,-0.66867 -1.25829,-0.32632 0.71224,0.918 1.71501,1.59139 2.70794,2.19478 0.21643,0.13152 0.50142,-0.0774 0.75432,-0.0908 1.38396,-0.0737 4.35441,-0.0849 5.46964,-0.0969 1.18332,-0.009 2.36665,-0.0161 3.54995,-0.0261 0.95193,-0.008 2.67309,0.90603 2.85575,-0.0282 0.21502,-1.09985 -1.42926,-1.78593 -2.38744,-2.36714 -0.47407,-0.28757 -1.10727,-0.0607 -1.66104,-0.0886 -12.17411,-0.61291 6.83218,0.3593 -8.10526,-0.40766 -8.91875,-0.48096 -17.83466,-1.09408 -26.77006,-1.11809 -2.61501,-0.0449 -5.233922,0.14911 -7.849733,0.007 0.666276,0.76559 1.284163,1.57615 1.998832,2.29678 0.06052,0.061 0.170942,-0.0213 0.256886,-0.0222 0.296773,-0.003 1.074045,0.24312 0.89031,0.01 -2.056508,-2.6088 -1.938718,-2.29875 -3.980341,-2.31463 0.851262,0.77762 1.669515,1.59299 2.553785,2.33285 0.05056,0.0423 0.129082,-0.032 0.194997,-0.0329 0.462093,-0.006 0.92428,0.004 1.386348,0.0117 2.014446,0.0334 4.029136,0.0995 6.038886,0.24587 0.6554,0.067 1.31405,0.10744 1.96618,0.20103 0.46917,0.0673 1.66605,0.66922 1.39386,0.28119 -0.58082,-0.82799 -1.60858,-1.22884 -2.4511,-1.78836 -0.0715,-0.0475 0.15788,0.16239 0.10931,0.23317 -0.13033,0.1899 -0.3467,0.31208 -0.55334,0.4138 -0.37913,0.18662 -0.79181,0.29548 -1.18771,0.44322 -4.868561,0.98146 -9.854735,1.1578 -14.810656,1.03724 -8.230518,-0.0916 -16.460099,-0.24237 -24.687662,-0.48475 -1.108845,0.0233 -1.983557,-0.151 -2.95897,0.31649 -0.136853,0.0656 -1.271212,1.09159 -1.038281,1.30026 1.040585,0.93219 2.304775,1.57961 3.457163,2.36942 1.526317,0.44726 2.433121,-0.15731 3.590387,-1.17345 0.217596,-0.20686 0.827098,-0.37612 0.652794,-0.62057 -0.812634,-1.13968 -2.064589,-3.15094 -3.33161,-2.55606 -0.465219,0.21843 -1.038071,0.75188 -1.020096,0.76986 0.945484,0.94599 2.167724,1.56726 3.251584,2.35089 1.852422,-0.27561 3.559154,-1.3642 5.484601,-1.26738 1.045416,0.0185 2.082562,0.0859 3.126383,0.14407 0.360198,0.02 0.720169,0.0471 1.080809,0.0563 0.297228,0.008 1.081556,0.22295 0.89195,-0.006 -0.807315,-0.97513 -1.942483,-1.62399 -2.913724,-2.43598 -1.396992,-0.31649 -2.859413,-0.0868 -4.251407,-0.45661 6.269289,3.99587 0.02598,-0.0683 -1.358513,-0.64946 -0.167238,-0.0702 -0.299083,0.22418 -0.386271,0.38323 -0.03113,0.0568 0.05255,0.11839 0.07883,0.17759 1.256054,0.7492 2.512108,1.49841 3.768162,2.24761 1.184531,0.35066 1.923367,0.33667 3.154039,0.35009 0.355775,0.004 1.271585,0.30986 1.067226,0.0186 -1.727501,-2.46205 -1.642832,-2.35746 -3.152235,-2.29704 -1.66302,0.0115 -3.325707,-0.0344 -4.988219,-0.006 -1.07969,0.0105 -2.15928,0.0123 -3.238981,-0.001 -0.31731,-0.004 -1.148133,-0.26756 -0.951828,-0.0182 1.899094,2.4121 1.639091,2.35484 3.057879,2.3173 2.191597,-0.0161 4.383847,-0.0453 6.574573,0.0423 2.000481,0.1291 2.686505,0.41326 -1.505087,-2.1791 -0.227608,-0.14077 -0.532974,0.0494 -0.799095,0.0777 -0.292512,0.0311 -1.048903,-0.13798 -0.876747,0.10054 1.707991,2.36643 1.603981,2.29268 3.029254,2.49605 2.980587,0.15291 5.967008,0.13763 8.950635,0.16644 0.686781,0.007 2.225463,0.69713 2.060215,0.0305 -0.281268,-1.1347 -1.752169,-1.54807 -2.628254,-2.3221 -1.437222,-0.0263 -2.875701,-0.0619 -4.310298,-0.15777 -0.569632,-0.0381 -1.899754,-0.68264 -1.706526,-0.14543 0.891895,2.47963 3.404775,1.3586 1.943087,1.94119 1.74706,-0.47746 3.586027,-0.46894 5.383792,-0.57719 2.89746,-0.17447 5.79488,-0.351 8.690721,-0.55079 0.789538,-0.0486 1.578885,-0.10039 2.368619,-0.1457 0.676984,-0.0388 2.01758,0.57118 2.031489,-0.10677 0.05254,-2.56056 -1.886045,-2.39339 -3.243228,-2.45901 -1.95757,-0.0947 -3.520144,-0.151 -5.513157,-0.22957 -6.38007,-0.20068 -12.767792,-0.15525 -19.142565,-0.5252 -0.86003,-0.0669 -2.199333,-0.97476 -2.580089,-0.20071 -1.293363,2.62932 1.981644,1.8143 2.351651,1.76497 0.369718,-0.0493 0.742267,-0.0743 1.113343,-0.11205 0.389019,-0.0396 0.777959,-0.0799 1.166939,-0.11984 2.865139,-0.23794 5.736299,-0.24053 8.609838,-0.21052 2.899108,-0.008 5.798193,-0.0212 8.697304,-0.0285 4.880893,5.3e-4 9.763498,0.0677 14.637042,0.35619 5.48082,0.35832 11.07674,0.70176 16.47326,1.76768 0.61617,0.1217 1.2192,0.30241 1.82879,0.45361 -0.88933,-0.73234 -1.73806,-1.51699 -2.668,-2.19702 -0.0879,-0.0643 -0.21767,0.006 -0.32655,0.007 -0.82934,0.007 -1.65886,5.3e-4 -2.48821,0.01 -1.92218,0.007 -3.84431,-2.4e-4 -5.76648,-0.007 -2.34124,-0.001 -4.68251,0.0151 -7.0231,0.0752 -4.925164,0.14255 -9.847031,0.38421 -14.754536,0.83797 -7.613888,0.63133 -15.279187,1.49831 -22.920483,0.88254 0.496472,0.58626 0.915678,1.24789 1.489416,1.75878 0.09688,0.0863 -0.05672,-0.31591 0.05271,-0.38558 0.44237,-0.28164 0.969473,-0.40118 1.462736,-0.57924 1.859944,-0.67141 3.773225,-1.17433 5.68878,-1.65719 4.037745,-0.89719 8.135704,-1.40981 12.268173,-1.62166 4.469127,-0.14716 8.940927,-0.0649 13.411974,-0.0889 3.20938,0.003 6.42192,-0.0125 9.62774,0.15958 4.32001,0.29588 8.62168,0.83635 12.84847,1.79901 2.18463,0.52199 2.89316,0.67183 5.03219,1.25749 0.62427,0.17093 2.06809,1.15504 1.86498,0.54049 -1.43884,-4.35369 -1.55031,-1.82265 -2.89337,-1.82711 -0.8602,-0.003 -1.71709,-0.10701 -2.57564,-0.16051 -1.28533,-0.1449 -2.57333,-0.26789 -3.85601,-0.43471 -1.29846,-0.16888 -2.60889,-0.85997 -3.88628,-0.57224 -0.4659,0.10494 0.56094,0.84729 0.54593,1.32463 -0.007,0.21235 -0.76377,-0.16079 -0.5792,-0.26601 0.80525,-0.45908 4.01448,-0.54244 4.49877,-0.57605 2.99129,-0.12225 5.96339,-0.13649 8.95689,-0.0916 0.6931,0.0104 2.19462,0.72917 2.07902,0.0457 -0.43581,-2.57663 -1.78026,-2.33865 -3.13785,-2.26354 -7.35971,0.10526 -14.72041,0.11983 -22.08061,0.16947 -8.790108,0.0158 -17.579659,0.0285 -26.368884,-0.11428 -1.158221,-0.0188 -2.731241,-0.95597 -3.474466,-0.0675 -0.59672,0.71337 1.098039,1.50139 1.64706,2.25208 4.113488,-0.0428 8.22741,-0.0335 12.341008,-0.0623 6.370627,-0.0177 12.741282,-0.0289 19.111922,-0.0184 7.03862,0.0118 14.08139,0.056 21.11148,0.43608 6.53112,0.39983 13.07471,0.90068 19.50967,2.13935 -0.84416,-0.77093 -1.63657,-1.60269 -2.53251,-2.3128 -0.0588,-0.0466 -1.36064,-0.35913 -1.39663,-0.36734 -1.04459,-0.2385 -2.09919,-0.43837 -3.15879,-0.59667 -3.60433,-0.37277 -7.21129,-0.78592 -10.84164,-0.73533 -1.84608,-0.0467 -3.7047,-0.0683 -5.51614,-0.47211 -2.31777,-0.4654 -4.64476,-0.88791 -6.97674,-1.27537 -4.76104,-0.76165 -9.52194,-1.55229 -14.24487,-2.52299 0.72532,0.7126 1.37196,1.51533 2.17597,2.13778 0.152,0.11768 0.38493,-0.0206 0.57666,-0.007 0.68298,0.0493 1.36311,0.13239 2.0449,0.19606 3.26669,0.30505 6.53472,0.59677 9.80476,0.86368 6.32415,0.41925 12.63069,1.02646 18.88492,2.07772 4.16225,0.5926 8.32906,1.16545 12.4619,1.94224 2.84122,0.53552 5.66046,1.18141 8.50852,1.68203 1.79317,0.37811 3.58726,0.74932 5.37606,1.14773 0.45564,0.10148 0.91243,0.19805 1.36631,0.3071 0.29463,0.0708 1.08018,0.45876 0.87885,0.2323 -0.78862,-0.88705 -1.81181,-1.53379 -2.71772,-2.30069 -1.35023,-0.44738 -2.67622,-0.98026 -4.05978,-1.31555 -1.35385,-0.14975 -2.72223,-0.015 -4.08195,-0.0532 -2.0867,0.001 -4.17339,0.008 -6.26009,0.006 -2.80831,-1.3e-4 -5.6165,0.0282 -8.4248,0.0346 -4.51561,0.006 -9.03124,0.004 -13.54684,0.018 -5.81815,0.0151 -11.6363,-0.0195 -17.45433,0.035 -7.40037,0.0189 -14.800248,-0.0685 -22.200453,-0.0249 -6.415294,0.11695 -12.847653,0.19737 -19.231517,0.89676 -2.481678,0.37909 -2.84275,0.40591 -5.314069,0.89778 -3.355054,0.66777 -6.669188,1.53684 -10.05001,2.07827 -2.296597,0.25981 -3.369022,-0.009 1.164783,2.3071 0.176477,0.0902 0.223684,-0.33517 0.379413,-0.45774 0.359124,-0.28266 0.765013,-0.50025 1.150209,-0.74619 1.579666,-1.00861 1.311148,-0.83059 2.959582,-1.80767 2.627421,-1.4717 5.319813,-2.8411 8.121253,-3.95337 2.631691,-1.02043 5.35233,-1.71055 8.129484,-2.21882 3.691898,-0.62063 7.408651,-1.08165 11.141509,-1.37475 4.655886,-0.28147 9.312013,-0.24623 13.975006,-0.25371 5.15554,-0.0104 10.3113,-0.0172 15.46671,0.0224 4.81789,0.0313 9.6406,0.0763 14.44708,0.44288 3.92551,0.36869 7.82285,0.92891 11.70045,1.64496 3.46938,0.59946 6.8877,1.46064 10.37209,1.98154 3.5561,0.59379 7.10811,1.2258 10.69498,1.60806 -0.8382,-0.76226 -1.61136,-1.60284 -2.5146,-2.28678 -0.133,-0.1007 -0.33363,0.006 -0.50043,0.004 -0.35565,-0.004 -0.71127,-0.0118 -1.06679,-0.0225 -1.25592,-0.0375 -2.51169,-0.10027 -3.76166,-0.23237 -2.8387,-0.31187 -5.66136,-0.73329 -8.44022,-1.40369 -2.99967,-0.55822 -5.99158,-1.14898 -8.96511,-1.8353 -3.79851,-0.8424 -7.64026,-1.45085 -11.51157,-1.85031 -5.66203,-0.41142 -11.33519,-0.13176 -17.00755,-0.22976 -4.86165,-0.05 -9.72303,-0.0506 -14.584825,-0.007 -4.857752,0.0216 -9.742376,-0.0546 -14.572429,0.53355 -4.208505,0.62191 -8.312637,1.73937 -12.47983,2.58106 -3.85505,0.8282 -7.800086,1.41821 -11.498296,2.8284 -2.495704,1.00424 -5.112475,1.95919 -6.978918,3.9859 -0.163181,0.22708 -0.347151,0.44057 -0.489547,0.68123 -0.122712,0.2074 -0.482585,0.49707 -0.302131,0.65678 3.334229,2.95097 3.19768,2.71792 5.669243,0.98988 2.228331,-1.48466 4.65587,-2.61466 7.064743,-3.7743 0.866388,-0.42294 1.933641,-0.96362 2.825207,-1.31381 2.623034,-1.03027 5.398815,-1.65076 8.160338,-2.1654 8.336504,-1.24591 16.769603,-1.55421 25.192444,-1.39228 9.796241,0.0694 19.593611,0.22446 29.379441,0.70982 5.04672,0.2612 5.28925,0.25985 10.32914,0.57618 5.131,0.32205 10.28446,0.59048 15.35061,1.52119 5.10909,0.99362 10.29838,1.98398 15.13213,3.96474 0,0 -3.07686,-2.46119 -3.07686,-2.46119 z" />
  </g>
</svg>
